# xmcd CD database file
#
# Track frame offsets:
#	150
#	12290
#	24590
#	44457
#	55855
#	76512
#	92842
#	108775
#	123350
#	137515
#	152560
#	173685
#	185112
#	205892
#	217287
#	226825
#	246312
#	258585
#	272865
#	289087
#
# Disc length: 4019 seconds
#
# Revision: 5
# Processed by: cddbd v1.5.2PL0 Copyright (c) Steve Scherf et al.
# Submitted via: CDex 1.51
#
DISCID=180fb114
DTITLE=Various Artist - The Great Irish Pub Ballads Collection
DYEAR=1996
DGENRE=Celtic
TTITLE0=The Wild Rover - Dublin City Ramblers
TTITLE1=The Craic Was Ninety - Paddy Kelly
TTITLE2=The Rare Ould Times - Jim McCan
TTITLE3=Mursheen Durkin - Johnny McEvoy
TTITLE4=The Fields Of Athenry - Paddy Kelly
TTITLE5=Dirty Old Town - Dublin City Ramblers
TTITLE6=The Rose Of Allendale - BarleyCorn
TTITLE7=The Star Of The County Down - Fair Isle Folk
TTITLE8=Easy And Slow - Ronnie Drew (Dubliners)
TTITLE9=The Bramble And The Rose - The Black Family
TTITLE10=Clare To Here - Jim McCann 
TTITLE11=The Galway Race - Paddly Kelly
TTITLE12=Grace - Barleycorn
TTITLE13=Staten Island - Johnny Mc Evoy
TTITLE14=The Banks Of The Roses - The Jolly Beggarmen
TTITLE15=Raglan Road - Fair Isle Folk
TTITLE16=A Place In The Choir - Barleycorn
TTITLE17=Danny Farrell - Ronnie Drew (Dubliners)
TTITLE18=The Water Is Wide - Fair Isle Folk
TTITLE19=Whiskey In The Jar - Dublin City Ramblers
EXTD=Irish Pubs Collection YEAR: 1996
EXTT0=
EXTT1=
EXTT2=
EXTT3=
EXTT4=
EXTT5=
EXTT6=
EXTT7=
EXTT8=
EXTT9=
EXTT10=
EXTT11=
EXTT12=
EXTT13=
EXTT14=
EXTT15=
EXTT16=
EXTT17=
EXTT18=
EXTT19=
PLAYORDER=
